<svg width="118" height="25" viewBox="0 0 118 25" fill="none" xmlns="http://www.w3.org/2000/svg">
<path d="M3.10938 0V24H0.203125V0H3.10938ZM13.4375 7.09375L6.0625 14.9844L1.9375 19.2656L1.70312 16.1875L4.65625 12.6562L9.90625 7.09375H13.4375ZM10.7969 24L4.76562 15.9375L6.26562 13.3594L14.2031 24H10.7969ZM19.5625 7.09375V24H16.6562V7.09375H19.5625ZM16.4375 2.60938C16.4375 2.14062 16.5781 1.74479 16.8594 1.42188C17.151 1.09896 17.5781 0.9375 18.1406 0.9375C18.6927 0.9375 19.1146 1.09896 19.4062 1.42188C19.7083 1.74479 19.8594 2.14062 19.8594 2.60938C19.8594 3.05729 19.7083 3.44271 19.4062 3.76562C19.1146 4.07812 18.6927 4.23438 18.1406 4.23438C17.5781 4.23438 17.151 4.07812 16.8594 3.76562C16.5781 3.44271 16.4375 3.05729 16.4375 2.60938ZM27.0938 10.7031V24H24.2031V7.09375H26.9375L27.0938 10.7031ZM26.4062 14.9062L25.2031 14.8594C25.2135 13.7031 25.3854 12.6354 25.7188 11.6562C26.0521 10.6667 26.5208 9.80729 27.125 9.07812C27.7292 8.34896 28.4479 7.78646 29.2812 7.39062C30.125 6.98438 31.0573 6.78125 32.0781 6.78125C32.9115 6.78125 33.6615 6.89583 34.3281 7.125C34.9948 7.34375 35.5625 7.69792 36.0312 8.1875C36.5104 8.67708 36.875 9.3125 37.125 10.0938C37.375 10.8646 37.5 11.8073 37.5 12.9219V24H34.5938V12.8906C34.5938 12.0052 34.4635 11.2969 34.2031 10.7656C33.9427 10.224 33.5625 9.83333 33.0625 9.59375C32.5625 9.34375 31.9479 9.21875 31.2188 9.21875C30.5 9.21875 29.8438 9.36979 29.25 9.67188C28.6667 9.97396 28.1615 10.3906 27.7344 10.9219C27.3177 11.4531 26.9896 12.0625 26.75 12.75C26.5208 13.4271 26.4062 14.1458 26.4062 14.9062ZM41.125 15.7344V15.375C41.125 14.1562 41.3021 13.026 41.6562 11.9844C42.0104 10.9323 42.5208 10.0208 43.1875 9.25C43.8542 8.46875 44.6615 7.86458 45.6094 7.4375C46.5573 7 47.6198 6.78125 48.7969 6.78125C49.9844 6.78125 51.0521 7 52 7.4375C52.9583 7.86458 53.7708 8.46875 54.4375 9.25C55.1146 10.0208 55.6302 10.9323 55.9844 11.9844C56.3385 13.026 56.5156 14.1562 56.5156 15.375V15.7344C56.5156 16.9531 56.3385 18.0833 55.9844 19.125C55.6302 20.1667 55.1146 21.0781 54.4375 21.8594C53.7708 22.6302 52.9635 23.2344 52.0156 23.6719C51.0781 24.099 50.0156 24.3125 48.8281 24.3125C47.6406 24.3125 46.5729 24.099 45.625 23.6719C44.6771 23.2344 43.8646 22.6302 43.1875 21.8594C42.5208 21.0781 42.0104 20.1667 41.6562 19.125C41.3021 18.0833 41.125 16.9531 41.125 15.7344ZM44.0156 15.375V15.7344C44.0156 16.5781 44.1146 17.375 44.3125 18.125C44.5104 18.8646 44.8073 19.5208 45.2031 20.0938C45.6094 20.6667 46.1146 21.1198 46.7188 21.4531C47.3229 21.776 48.026 21.9375 48.8281 21.9375C49.6198 21.9375 50.3125 21.776 50.9062 21.4531C51.5104 21.1198 52.0104 20.6667 52.4062 20.0938C52.8021 19.5208 53.099 18.8646 53.2969 18.125C53.5052 17.375 53.6094 16.5781 53.6094 15.7344V15.375C53.6094 14.5417 53.5052 13.7552 53.2969 13.0156C53.099 12.2656 52.7969 11.6042 52.3906 11.0312C51.9948 10.4479 51.4948 9.98958 50.8906 9.65625C50.2969 9.32292 49.599 9.15625 48.7969 9.15625C48.0052 9.15625 47.3073 9.32292 46.7031 9.65625C46.1094 9.98958 45.6094 10.4479 45.2031 11.0312C44.8073 11.6042 44.5104 12.2656 44.3125 13.0156C44.1146 13.7552 44.0156 14.5417 44.0156 15.375Z" fill="white"/>
<path d="M64.1719 0V24H60.0312V0H64.1719ZM67.375 15.7188V15.3906C67.375 14.151 67.5521 13.0104 67.9062 11.9688C68.2604 10.9167 68.776 10.0052 69.4531 9.23438C70.1302 8.46354 70.9583 7.86458 71.9375 7.4375C72.9167 7 74.0312 6.78125 75.2812 6.78125C76.5521 6.78125 77.6771 7 78.6562 7.4375C79.6458 7.86458 80.4792 8.46354 81.1562 9.23438C81.8333 10.0052 82.349 10.9167 82.7031 11.9688C83.0573 13.0104 83.2344 14.151 83.2344 15.3906V15.7188C83.2344 16.9479 83.0573 18.0885 82.7031 19.1406C82.349 20.1823 81.8333 21.0938 81.1562 21.875C80.4792 22.6458 79.651 23.2448 78.6719 23.6719C77.6927 24.099 76.5729 24.3125 75.3125 24.3125C74.0625 24.3125 72.9427 24.099 71.9531 23.6719C70.9635 23.2448 70.1302 22.6458 69.4531 21.875C68.776 21.0938 68.2604 20.1823 67.9062 19.1406C67.5521 18.0885 67.375 16.9479 67.375 15.7188ZM71.5 15.3906V15.7188C71.5 16.4583 71.5729 17.151 71.7188 17.7969C71.8646 18.4427 72.0885 19.0104 72.3906 19.5C72.6927 19.9896 73.0833 20.375 73.5625 20.6562C74.0521 20.9271 74.6354 21.0625 75.3125 21.0625C75.9792 21.0625 76.5521 20.9271 77.0312 20.6562C77.5104 20.375 77.901 19.9896 78.2031 19.5C78.5156 19.0104 78.7448 18.4427 78.8906 17.7969C79.0365 17.151 79.1094 16.4583 79.1094 15.7188V15.3906C79.1094 14.6615 79.0365 13.9792 78.8906 13.3438C78.7448 12.6979 78.5156 12.1302 78.2031 11.6406C77.901 11.1406 77.5052 10.75 77.0156 10.4688C76.5365 10.1771 75.9583 10.0312 75.2812 10.0312C74.6146 10.0312 74.0417 10.1771 73.5625 10.4688C73.0833 10.75 72.6927 11.1406 72.3906 11.6406C72.0885 12.1302 71.8646 12.6979 71.7188 13.3438C71.5729 13.9792 71.5 14.6615 71.5 15.3906ZM95.5469 20.4062V12.6094C95.5469 12.0365 95.4479 11.5417 95.25 11.125C95.0521 10.7083 94.75 10.3854 94.3438 10.1562C93.9375 9.92708 93.4219 9.8125 92.7969 9.8125C92.2448 9.8125 91.7604 9.90625 91.3438 10.0938C90.9375 10.2812 90.625 10.5469 90.4062 10.8906C90.1875 11.224 90.0781 11.6094 90.0781 12.0469H85.9375C85.9375 11.349 86.1042 10.6875 86.4375 10.0625C86.7708 9.42708 87.2448 8.86458 87.8594 8.375C88.4844 7.875 89.2292 7.48438 90.0938 7.20312C90.9688 6.92188 91.9479 6.78125 93.0312 6.78125C94.3125 6.78125 95.4531 7 96.4531 7.4375C97.4635 7.86458 98.2552 8.51042 98.8281 9.375C99.4115 10.2396 99.7031 11.3281 99.7031 12.6406V20.0156C99.7031 20.8594 99.7552 21.5833 99.8594 22.1875C99.974 22.7812 100.141 23.2969 100.359 23.7344V24H96.1562C95.9583 23.5729 95.8073 23.0312 95.7031 22.375C95.599 21.7083 95.5469 21.0521 95.5469 20.4062ZM96.125 13.7031L96.1562 16.1562H93.5469C92.901 16.1562 92.3333 16.224 91.8438 16.3594C91.3542 16.4844 90.9531 16.6719 90.6406 16.9219C90.3281 17.1615 90.0938 17.4531 89.9375 17.7969C89.7812 18.1302 89.7031 18.5104 89.7031 18.9375C89.7031 19.3542 89.7969 19.7292 89.9844 20.0625C90.1823 20.3958 90.4635 20.6615 90.8281 20.8594C91.2031 21.0469 91.6406 21.1406 92.1406 21.1406C92.8698 21.1406 93.5052 20.9948 94.0469 20.7031C94.5885 20.401 95.0104 20.0365 95.3125 19.6094C95.6146 19.1823 95.776 18.776 95.7969 18.3906L96.9844 20.1719C96.8385 20.599 96.6198 21.0521 96.3281 21.5312C96.0365 22.0104 95.6615 22.4583 95.2031 22.875C94.7448 23.2917 94.1927 23.6354 93.5469 23.9062C92.901 24.1771 92.151 24.3125 91.2969 24.3125C90.2031 24.3125 89.224 24.0938 88.3594 23.6562C87.4948 23.2188 86.8125 22.6198 86.3125 21.8594C85.8125 21.099 85.5625 20.2344 85.5625 19.2656C85.5625 18.3698 85.7292 17.5781 86.0625 16.8906C86.3958 16.2031 86.8906 15.625 87.5469 15.1562C88.2031 14.6771 89.0156 14.3177 89.9844 14.0781C90.9635 13.8281 92.0833 13.7031 93.3438 13.7031H96.125ZM113.562 20.4062V0H117.719V24H113.969L113.562 20.4062ZM102.703 15.75V15.4219C102.703 14.1302 102.849 12.9583 103.141 11.9062C103.443 10.8438 103.88 9.93229 104.453 9.17188C105.026 8.41146 105.719 7.82292 106.531 7.40625C107.354 6.98958 108.286 6.78125 109.328 6.78125C110.339 6.78125 111.219 6.98438 111.969 7.39062C112.729 7.79688 113.375 8.375 113.906 9.125C114.448 9.875 114.88 10.7656 115.203 11.7969C115.526 12.8177 115.76 13.9427 115.906 15.1719V16.0625C115.76 17.2604 115.526 18.3594 115.203 19.3594C114.88 20.3594 114.448 21.2344 113.906 21.9844C113.375 22.724 112.729 23.2969 111.969 23.7031C111.208 24.1094 110.318 24.3125 109.297 24.3125C108.266 24.3125 107.339 24.099 106.516 23.6719C105.703 23.2448 105.01 22.6458 104.438 21.875C103.875 21.1042 103.443 20.1979 103.141 19.1562C102.849 18.1146 102.703 16.9792 102.703 15.75ZM106.844 15.4219V15.75C106.844 16.4792 106.906 17.1615 107.031 17.7969C107.156 18.4323 107.359 18.9948 107.641 19.4844C107.922 19.9635 108.281 20.3385 108.719 20.6094C109.167 20.8802 109.708 21.0156 110.344 21.0156C111.156 21.0156 111.823 20.8385 112.344 20.4844C112.875 20.1198 113.286 19.625 113.578 19C113.87 18.3646 114.057 17.651 114.141 16.8594V14.4062C114.099 13.7812 113.99 13.2031 113.812 12.6719C113.646 12.1406 113.406 11.6823 113.094 11.2969C112.792 10.9115 112.417 10.6094 111.969 10.3906C111.521 10.1719 110.99 10.0625 110.375 10.0625C109.74 10.0625 109.198 10.2031 108.75 10.4844C108.302 10.7552 107.938 11.1354 107.656 11.625C107.375 12.1146 107.167 12.6823 107.031 13.3281C106.906 13.974 106.844 14.6719 106.844 15.4219Z" fill="#FF1B7B"/>
</svg>
