<svg width="30" height="35" viewBox="0 0 30 35" fill="none" xmlns="http://www.w3.org/2000/svg">
<path d="M9.42922 35H2.66362C1.19863 35 0 33.8014 0 32.3364V2.66362C0 1.19863 1.19863 0 2.66362 0H9.42922C10.8942 0 12.0928 1.19863 12.0928 2.66362V32.3364C12.0928 33.8014 10.9209 35 9.42922 35Z" fill="white"/>
<path d="M27.0357 35H20.2701C18.8051 35 17.6064 33.8014 17.6064 32.3364V2.66362C17.6064 1.19863 18.8051 0 20.2701 0H27.0357C28.5007 0 29.6993 1.19863 29.6993 2.66362V32.3364C29.6993 33.8014 28.5007 35 27.0357 35Z" fill="white"/>
</svg>
